<svg xmlns="http://www.w3.org/2000/svg" version="1.2" baseProfile="tiny" width="100%" height="100%" viewBox="0 0 400 600" preserveAspectRatio="xMinYMin meet">
<g data-feature="body" data-feature-index="0" data-tag="body" data-meta-id="body3" data-meta-category="body" data-meta-short-label="Neutral medium torso" data-meta-description="Stylized medium-build torso with rounded shoulders and a simple neckline, serving as a neutral base for outfits. Flat, minimal shading and single-color clothing make it easy to layer accessories or garments. Pose is upright and relaxed, conveying no strong emotion." data-meta-tags="medium-build,neutral,rounded-shoulders,simple-shirt,flat-style,upright-pose" transform="scale(1.04 1) translate(-7.692307692307699 0)">
<path fill="#f2d6cb" stroke="#000" stroke-width="6" d="M10 600s-10-70 50-70c10 0 0-10 60-20 0 0 50-210 80-210s80 210 80 210c60 10 50 20 60 20 60 0 50 70 50 70"/><path d="M71 545s46.9-3 82.1 10M329 545s-46.9-3-82.1 10m77.1-18s5.5-7.5 22-7m-271 7s-5.5-7.5-22-7"/>
</g>
<g data-feature="jersey" data-feature-index="0" data-tag="jersey" data-meta-id="football3" data-meta-category="jersey" data-meta-short-label="Football jersey #3" data-meta-description="Athletic football jersey variant with a classic cut and bold team-style markings. Likely short sleeves with contrasting shoulder or chest stripes and a prominent number or emblem on the front, conveying a sporty, team-oriented look. Suited for active or athletic avatar styles." data-meta-tags="sporty,short-sleeve,numbered,team,striped,athletic" transform="scale(1.04 1) translate(-7.692307692307699 0)">
<g stroke="#000"><path fill="#89bfd3" stroke-width="6" d="M120 505c0 35 50 25 80 45 30-20 80-10 80-45 30-25 90-15 100-5s10.07 20.41 15 50c5 30 5 20 5 60H0c0-40 0-29.59 5-59.59 4.93-29.59 5-39.38 15-50.41 9.5-10.48 70-20 100 5Z"/><path fill="#7a1319" stroke-width="2" d="M120 505c0 35 50 25 80 45 30-20 80-10 80-45l15-10c5 60-55 45-95 75-40-30-100-15-95-75z"/><g stroke-width="2"><path fill="#7a1319" d="m55 490-25 5-10 5v80h35zm290 0 25 5 10 5v80h-35z"/><path fill="#07364f" d="m30 495 15-3.14V580H30zm340 0-15-3.14V580h15z"/></g><path fill="none" stroke-width="6" d="M120 505c0 35 50 25 80 45 30-20 80-10 80-45 30-25 90-15 100-5s10.07 20.41 15 50c5 30 5 20 5 60H0c0-40 0-30 5-60 4.93-29.59 5-38.97 15-50 9.5-10.48 70-20 100 5Z"/><path fill="none" stroke-width="2" d="M19.5 570s72.5-2.11 81.5-20m280 20s-71-2.11-80-20"/></g>
</g>
<g data-feature="ear" data-feature-index="0" data-tag="left-ear" data-meta-id="ear3" data-meta-category="ear" data-meta-short-label="stylized rounded ear" data-meta-description="A medium-sized, rounded ear with a smooth outer contour and a single inner fold indicating the concha and lobe. Minimal, cartoon-like detailing for a neutral, everyday avatar look." data-meta-tags="rounded,medium,stylized,minimal,cartoon,neutral,visible-lobe" transform="translate(32 293.3) scale(0.58 0.58) translate(16.655172413793103 22.955172413793107) translate(27.69 -3)">
<path fill="#f2d6cb" stroke="#000" stroke-width="6" d="M43 8S3-12 3 28c0 45 40 30 40 30z"/>
</g>
<g data-feature="ear" data-feature-index="1" data-tag="right-ear" data-meta-id="ear3" data-meta-category="ear" data-meta-short-label="stylized rounded ear" data-meta-description="A medium-sized, rounded ear with a smooth outer contour and a single inner fold indicating the concha and lobe. Minimal, cartoon-like detailing for a neutral, everyday avatar look." data-meta-tags="rounded,medium,stylized,minimal,cartoon,neutral,visible-lobe" transform="translate(322 293.3) scale(-0.58 0.58) translate(-62.65517241379311 22.955172413793107) translate(27.69 -3)">
<path fill="#f2d6cb" stroke="#000" stroke-width="6" d="M43 8S3-12 3 28c0 45 40 30 40 30z"/>
</g>
<g data-feature="head" data-feature-index="0" data-tag="head" data-meta-id="head2" data-meta-category="head" data-meta-short-label="Oval neutral head" data-meta-description="A slightly oval head shape with balanced, moderate proportions and a gentle jawline. Clean, minimal internal detail and flat shading make it a neutral base intended for adding facial features, hair, or accessories." data-meta-tags="oval,neutral,balanced,minimal,gentle-jaw,canvas" transform="scale(0.802 1) translate(49.37655860349126 0)">
<path fill="#f2d6cb" stroke="#000" stroke-width="6" d="M200 100c100 0 150 60 150 200 0 70-30 120-40 130l-60 60s-20 10-50 10-50-10-50-10l-60-60c-10-10-40-60-40-130 0-140 50-200 150-200Z"/><path fill="rgba(0,0,0,0)" d="M200 410c30 0 50 10 50 10 30 0 90-15 90-120h10c0 70-30 120-40 130l-60 60s-20 10-50 10-50-10-50-10l-60-60c-10-10-40-60-40-130h10c0 105 60 120 90 120 0 0 20-10 50-10"/><path fill="rgba(0,0,0,0)" d="M60 300H50c0-140 50-200 150-200s150 60 150 200h-10v-10c0-5-10-20-15-25s-5-55-15-65c-40-40-60 0-110 0s-70-40-110 0c-10 10-10 60-15 65s-15 20-15 25z"/>
</g>
<g data-feature="eyeLine" data-feature-index="0" data-tag="eye-line" data-meta-id="line3" data-meta-category="eyeLine" data-meta-short-label="Curved eyelid line" data-meta-description="A medium-thickness, gently curved upper-eyelid line with a subtle taper and small outward flick at the outer corner. Clean, stylized stroke that reads as a neutral to slightly alert eye shape, suitable for minimalist or cartoon avatars." data-meta-tags="arched,medium-thick,tapered,subtle-flick,neutral,stylized">
<path fill="none" stroke="#000" stroke-width="2" d="M240 340s10 10 25 10m-105-10s-10 10-25 10"/>
</g>
<g data-feature="smileLine" data-feature-index="0" data-tag="left-smile-line" data-meta-id="line1" data-meta-category="smileLine" data-meta-short-label="Thin curved smile" data-meta-description="A minimal single-line smile formed by a gentle upward curve. Simple and neutral, it conveys a subtle, friendly expression suitable for understated or flat-style avatars." data-meta-tags="thin,curved,minimal,subtle,friendly,closed-mouth" transform="translate(144.4807306749833 416) scale(1.01 1.01) translate(-0.05464623094075954 -0.18811881188118829)">
<path fill="none" stroke="#000" stroke-width="2" d="M9 2s-12.5 8.95-4 34"/>
</g>
<g data-feature="smileLine" data-feature-index="1" data-tag="right-smile-line" data-meta-id="line1" data-meta-category="smileLine" data-meta-short-label="Thin curved smile" data-meta-description="A minimal single-line smile formed by a gentle upward curve. Simple and neutral, it conveys a subtle, friendly expression suitable for understated or flat-style avatars." data-meta-tags="thin,curved,minimal,subtle,friendly,closed-mouth" transform="translate(244.4807306749833 416) scale(-1.01 1.01) translate(-10.983892419092657 -0.18811881188118829)">
<path fill="none" stroke="#000" stroke-width="2" d="M9 2s-12.5 8.95-4 34"/>
</g>
<g data-feature="eye" data-feature-index="0" data-tag="left-eye" data-meta-id="eye16" data-meta-category="eye" data-meta-short-label="Almond neutral eye" data-meta-description="Stylized almond-shaped eye with a single visible iris and a simple pupil. Moderate size with a subtle upper eyelid line and minimal eyelashes, producing a calm, neutral expression ideal for general-purpose avatars." data-meta-tags="almond,neutral,medium-size,minimal,stylized,single-iris,calm" transform="translate(102.5 285) rotate(6 37.5 25)">
<path d="m5 35 5-15s4.24-5 19.3-5c30 0 35.7 5 35.7 5l5 15z" style="fill:#f5f3ee"/><path d="M37.93 33.78c-4.53 0-8.2-3.66-8.2-8.2 0-4.53 3.67-8.19 8.2-8.19s8.19 3.66 8.19 8.19c0 4.54-3.66 8.2-8.19 8.2" style="fill:#000"/><path d="M5 35s0-10 5-15 55 0 55 0l5 15" style="fill:none;stroke:#000;stroke-width:6"/>
</g>
<g data-feature="eye" data-feature-index="1" data-tag="right-eye" data-meta-id="eye16" data-meta-category="eye" data-meta-short-label="Almond neutral eye" data-meta-description="Stylized almond-shaped eye with a single visible iris and a simple pupil. Moderate size with a subtle upper eyelid line and minimal eyelashes, producing a calm, neutral expression ideal for general-purpose avatars." data-meta-tags="almond,neutral,medium-size,minimal,stylized,single-iris,calm" transform="translate(222.5 285) rotate(-6 37.5 25) scale(-1 1) translate(-75 0)">
<path d="m5 35 5-15s4.24-5 19.3-5c30 0 35.7 5 35.7 5l5 15z" style="fill:#f5f3ee"/><path d="M37.93 33.78c-4.53 0-8.2-3.66-8.2-8.2 0-4.53 3.67-8.19 8.2-8.19s8.19 3.66 8.19 8.19c0 4.54-3.66 8.2-8.19 8.2" style="fill:#000"/><path d="M5 35s0-10 5-15 55 0 55 0l5 15" style="fill:none;stroke:#000;stroke-width:6"/>
</g>
<g data-feature="eyebrow" data-feature-index="0" data-tag="left-eyebrow" data-meta-id="eyebrow6" data-meta-category="eyebrow" data-meta-short-label="gentle arched brows" data-meta-description="A medium-thickness eyebrow with a soft, natural arch and slightly tapered ends. Designed for a neutral or confident expression, suitable for everyday or subtle expressive avatars." data-meta-tags="medium,arched,tapered,natural,neutral,confident" transform="translate(105 260.3333333333333) rotate(12 35 9.66666666666667)">
<path fill="#CC9966" stroke="#000" d="M67 17c3-3 0-12 0-12H39C29 5 3 1 3 1S0 14 3 17s26 0 36 0 25 3 28 0Z"/>
</g>
<g data-feature="eyebrow" data-feature-index="1" data-tag="right-eyebrow" data-meta-id="eyebrow6" data-meta-category="eyebrow" data-meta-short-label="gentle arched brows" data-meta-description="A medium-thickness eyebrow with a soft, natural arch and slightly tapered ends. Designed for a neutral or confident expression, suitable for everyday or subtle expressive avatars." data-meta-tags="medium,arched,tapered,natural,neutral,confident" transform="translate(225 260.3333333333333) rotate(-12 35 9.66666666666667) scale(-1 1) translate(-70 0)">
<path fill="#CC9966" stroke="#000" d="M67 17c3-3 0-12 0-12H39C29 5 3 1 3 1S0 14 3 17s26 0 36 0 25 3 28 0Z"/>
</g>
<g data-feature="mouth" data-feature-index="0" data-tag="mouth" data-meta-id="smile4" data-meta-category="mouth" data-meta-short-label="wide smiling mouth" data-meta-description="A moderately wide, upward-curving smile with a clean, cartoony lip line and a slight open gap that suggests visible teeth. Feels cheerful and confident, suitable for happy or friendly avatar expressions." data-meta-tags="friendly,broad,curved,teeth,open,cheerful" transform="translate(-1.2900000000000205 20.56000000000006)">
<path d="M198.19 431.84c-7.3-1.3-14.7-2.5-22-3.9a67 67 0 0 1-10.6-3c-4.5-1.6-8.6-3.4-11.8 2.2-.5.9-3.1.6-4.7.9.2-1.5-.1-3.2.6-4.5 2.2-4.6 4.6-9.1 7.1-13.5.7-1.2 2.1-2.1 3.2-3.1.6 1.4 1.7 2.8 1.6 4.1a53.4 53.4 0 0 1-1.7 8.1c27.8 8.4 55.3 8.3 83.4.2-.1-1.3-.2-2.8-.2-4.2s.2-2.8.5-5.8c2 2.2 3.2 3.2 3.9 4.5 2 3.8 4 7.6 5.7 11.6.5 1.2.2 2.7.3 4-1.5-.2-3.3.1-4.4-.7-1.6-1.1-2.6-2.9-3.3-3.6-12.7 2.3-24.7 4.6-36.8 6.8-3.5-.1-7.1-.1-10.8-.1"/>
</g>
<g data-feature="nose" data-feature-index="0" data-tag="nose" data-meta-id="nose5" data-meta-category="nose" data-meta-short-label="rounded medium nose" data-meta-description="A medium-width rounded nose with gentle curves and subtle nostril definition. Simple, neutral style suited for friendly or everyday avatar faces and works well in cartoon or flat illustrations. Versatile and unobtrusive so it blends with many face shapes." data-meta-tags="medium,rounded,subtle,neutral,simple,cartoon,symmetrical" transform="translate(0 -12.5) scale(-0.76 0.76) translate(-463.1578947368421 120.78947368421052)">
<path fill="#f2d6cb" stroke="#000" stroke-width="5" d="M175 370c-20 0-5 25 5 15 5-5 15 10 20 10s15-15 20-10c10 10 25-15 5-15"/>
</g>
<g data-feature="hair" data-feature-index="0" data-tag="hair" data-meta-id="crop" data-meta-category="hair" data-meta-short-label="Short textured crop" data-meta-description="A short, cropped haircut with closely trimmed sides and a slightly longer, textured top or fringe. Modern and low-profile, it reads as neat, sporty, and versatile for both male and female avatars." data-meta-tags="short,textured,cropped,modern,neat,sporty,unisex" transform="scale(0.802 1) translate(49.37655860349126 0)">
<path fill="#CC9966" stroke="#000" stroke-width="4" d="M200 95c120 0 140 90 140 115-20 0-20 5-25 0s-15-15-50-15c-15 0-40 5-65 5s-50-5-65-5c-35 0-45 10-50 15s-5 0-25 0c0-25 25-115 140-115Z"/>
</g>
</svg>