<svg xmlns="http://www.w3.org/2000/svg" version="1.2" baseProfile="tiny" width="100%" height="100%" viewBox="0 0 400 600" preserveAspectRatio="xMinYMin meet">
<g data-feature="body" data-feature-index="0" data-tag="body" data-meta-id="body" data-meta-category="body" data-meta-short-label="default body" data-meta-description="Generic, neutral torso with a straight posture and minimal clothing detail, designed as the base body for avatars. Clean, solid shapes and a simple neckline allow easy layering of clothes and accessories." data-meta-tags="default,neutral,torso,unisex,minimal,solid-color,base" transform="scale(1.03 1) translate(-5.825242718446607 0)">
<path fill="#aa816f" stroke="#000" stroke-width="6" d="M10 600s0-50 60-70 70-50 70-50l60-180 60 180s10 30 70 50 60 70 60 70"/>
</g>
<g data-feature="jersey" data-feature-index="0" data-tag="jersey" data-meta-id="baseball4" data-meta-category="jersey" data-meta-short-label="Button-up baseball jersey" data-meta-description="Classic button-up baseball jersey with a relaxed, sporty silhouette. Short sleeves with contrasting trim or piping and a chest emblem or number give it a team-uniform look. Clean, casual style suited for athletic or streetwear avatars." data-meta-tags="button-up,short-sleeves,sporty,contrast-trim,logo,piping" transform="scale(1.03 1) translate(-5.89805825242719 0)">
<g stroke="#000"><path fill="#07364f" stroke-width="3" d="M120 505s35 40 80 40 80-40 80-40v95H120z"/><path fill="#7a1319" stroke-width="6" d="M120 504.6c10 45.4 80 55.4 90 65.4s10 40 10 40H-5s5-40 5-50 10-30 40-40 50 0 80-15.4z"/><path fill="#7a1319" stroke-width="6" d="M360 520c30 10 40 30 40 40s10 50 10 50H180s0-40 10-50 80-10 90-55c30 15 50 5 80 15z"/><path fill="#89bfd3" stroke-width="1.5" d="M196 597c-2.8 0-5-2.2-5-5s2.2-5 5-5 5 2.2 5 5-2.2 5-5 5zm-2-5h1m2 0h1"/></g><g fill="none" stroke="#000" stroke-width="6"><path d="M120 504.6c6.9 37.6 62.2 49.3 67.9 57-7.8 11.2-8 48.4-8 48.4H-5s5-40 5-50 10-30 40-40 50 0 80-15.4z"/><path d="M360 520c30 10 40 30 40 40s10 50 10 50H180s0-40 10-50 80-10 90-55c30 15 50 5 80 15z"/></g>
</g>
<g data-feature="ear" data-feature-index="0" data-tag="left-ear" data-meta-id="ear3" data-meta-category="ear" data-meta-short-label="stylized rounded ear" data-meta-description="A medium-sized, rounded ear with a smooth outer contour and a single inner fold indicating the concha and lobe. Minimal, cartoon-like detailing for a neutral, everyday avatar look." data-meta-tags="rounded,medium,stylized,minimal,cartoon,neutral,visible-lobe" transform="translate(32 293.3) scale(1.11 1.11) translate(-2.279279279279281 -3.141441441441444) translate(5.370000000000001 -3)">
<path fill="#aa816f" stroke="#000" stroke-width="6" d="M43 8S3-12 3 28c0 45 40 30 40 30z"/>
</g>
<g data-feature="ear" data-feature-index="1" data-tag="right-ear" data-meta-id="ear3" data-meta-category="ear" data-meta-short-label="stylized rounded ear" data-meta-description="A medium-sized, rounded ear with a smooth outer contour and a single inner fold indicating the concha and lobe. Minimal, cartoon-like detailing for a neutral, everyday avatar look." data-meta-tags="rounded,medium,stylized,minimal,cartoon,neutral,visible-lobe" transform="translate(322 293.3) scale(-1.11 1.11) translate(-43.72072072072073 -3.141441441441444) translate(5.370000000000001 -3)">
<path fill="#aa816f" stroke="#000" stroke-width="6" d="M43 8S3-12 3 28c0 45 40 30 40 30z"/>
</g>
<g data-feature="head" data-feature-index="0" data-tag="head" data-meta-id="head1" data-meta-category="head" data-meta-short-label="Basic oval head" data-meta-description="A simple, neutral head with a smooth oval silhouette and minimal detail. Balanced proportions make it a default canvas for adding hair, eyes, and other facial features." data-meta-tags="oval,neutral,simple,minimal,default,balanced" transform="scale(0.9460000000000001 1) translate(11.416490486257914 0)">
<path fill="#aa816f" stroke="#000" stroke-width="6" d="M200 100c100 0 150 60 150 200 0 70-50 200-150 200S50 370 50 300c0-140 50-200 150-200Z"/><path fill="rgba(0,0,0,0)" d="M200 410c30 0 50 10 50 10 30 0 90-15 90-120h10c0 70-50 200-150 200S50 370 50 300h10c0 105 60 120 90 120 0 0 20-10 50-10"/><path fill="rgba(0,0,0,0)" d="M60 300H50c0-140 50-200 150-200s150 60 150 200h-10v-10c0-5-10-20-15-25s-5-55-15-65c-40-40-60 0-110 0s-70-40-110 0c-10 10-10 60-15 65s-15 20-15 25z"/>
</g>
<g data-feature="eyeLine" data-feature-index="0" data-tag="eye-line" data-meta-id="line2" data-meta-category="eyeLine" data-meta-short-label="single curved line" data-meta-description="A minimal single-stroke eye rendered as a thin, slightly curved horizontal line, suggesting a relaxed or neutral closed eye. Suited for calm, stylized, or low-detail avatar expressions." data-meta-tags="minimal,single-line,curved,closed,neutral,thin,relaxed">
<path fill="none" stroke="#000" stroke-width="2" d="M300 320s5 5 10 5m-13.25-2.47S300 335 305 335m-205-15s-5 5-10 5m13.25-2.47S100 335 95 335"/>
</g>
<g data-feature="smileLine" data-feature-index="0" data-tag="left-smile-line" data-meta-id="line2" data-meta-category="smileLine" data-meta-short-label="Subtle curved smile" data-meta-description="A single thin stroke forming a gentle upward curve, representing a closed-mouth smile. Minimal and neutral-friendly, it conveys a calm, pleasant expression without strong emotion. Works well for simple, modern avatars where subtlety is desired." data-meta-tags="thin,curved,closed-mouth,subtle,friendly,minimal" transform="translate(140.5 420.5) scale(1.35 1.35) translate(-2.4629629629629637 -3.75925925925926)">
<path fill="none" stroke="#000" stroke-width="2" d="M17 2 2 12l5 15"/>
</g>
<g data-feature="smileLine" data-feature-index="1" data-tag="right-smile-line" data-meta-id="line2" data-meta-category="smileLine" data-meta-short-label="Subtle curved smile" data-meta-description="A single thin stroke forming a gentle upward curve, representing a closed-mouth smile. Minimal and neutral-friendly, it conveys a calm, pleasant expression without strong emotion. Works well for simple, modern avatars where subtlety is desired." data-meta-tags="thin,curved,closed-mouth,subtle,friendly,minimal" transform="translate(240.5 420.5) scale(-1.35 1.35) translate(-16.537037037037035 -3.75925925925926)">
<path fill="none" stroke="#000" stroke-width="2" d="M17 2 2 12l5 15"/>
</g>
<g data-feature="miscLine" data-feature-index="0" data-tag="misc-line" data-meta-id="forehead5" data-meta-category="miscLine" data-meta-short-label="Forehead line 5" data-meta-description="A stylized forehead crease consisting of a medium-thin horizontal line (or short set of parallel strokes) arcing gently with the brow. Designed to suggest age, concern, or a furrowed expression while remaining minimal and easy to layer on avatars." data-meta-tags="forehead,crease,horizontal,wrinkle,subtle,expression">
<path fill="none" stroke="#000" stroke-width="2" d="M200 270v-15l5-5-5 5-5-5m-25-15s15 0 30 5c15-5 30-5 30-5m-75-15s35 0 45 5c10-5 45-5 45-5"/>
</g>
<g data-feature="facialHair" data-feature-index="0" data-tag="facial-hair" data-meta-id="goatee-thin" data-meta-category="facialHair" data-meta-short-label="Thin goatee" data-meta-description="A narrow, neatly trimmed goatee focused on the chin with minimal side coverage; may include a thin connecting mustache or stand alone as a small tuft. Clean, sharp edges and restrained volume create a modern, subtle facial-hair look suited for refined or low-profile characters." data-meta-tags="thin,goatee,chin,neat,trimmed,minimal,stylish" transform="scale(0.9460000000000001 1) translate(11.416490486257914 0)">
<path stroke="#000" stroke-width="3" d="M165 470v25m10-30v35m10-40v40m10-40v40m10 0v-40m10 0v40m10-35v35m10-30v25"/>
</g>
<g data-feature="eye" data-feature-index="0" data-tag="left-eye" data-meta-id="eye18" data-meta-category="eye" data-meta-short-label="relaxed almond eyes" data-meta-description="Almond-shaped eyes with a gentle outward taper and a thin upper eyelid line. Medium-size pupils and clean, minimalist vector shapes convey a calm, neutral expression suitable for everyday avatars." data-meta-tags="almond,neutral,calm,minimal,thin-lid,medium-pupil,versatile" transform="translate(102.5 287.5) rotate(13 37.5 22.5)">
<path d="M10 35 5 20s15-10 30-10 35 15 35 15l-5 10z" style="fill:#f5f3ee"/><path d="M37.93 32.78c-4.53 0-8.2-3.66-8.2-8.2 0-4.53 3.67-8.19 8.2-8.19s8.19 3.66 8.19 8.19c0 4.54-3.66 8.2-8.19 8.2" style="fill:#000"/><path d="M10 35 5 20.72S25 10 35 10s35 15 35 15l-5 10" style="fill:none;stroke:#000;stroke-width:6"/>
</g>
<g data-feature="eye" data-feature-index="1" data-tag="right-eye" data-meta-id="eye18" data-meta-category="eye" data-meta-short-label="relaxed almond eyes" data-meta-description="Almond-shaped eyes with a gentle outward taper and a thin upper eyelid line. Medium-size pupils and clean, minimalist vector shapes convey a calm, neutral expression suitable for everyday avatars." data-meta-tags="almond,neutral,calm,minimal,thin-lid,medium-pupil,versatile" transform="translate(222.5 287.5) rotate(-13 37.5 22.5) scale(-1 1) translate(-75 0)">
<path d="M10 35 5 20s15-10 30-10 35 15 35 15l-5 10z" style="fill:#f5f3ee"/><path d="M37.93 32.78c-4.53 0-8.2-3.66-8.2-8.2 0-4.53 3.67-8.19 8.2-8.19s8.19 3.66 8.19 8.19c0 4.54-3.66 8.2-8.19 8.2" style="fill:#000"/><path d="M10 35 5 20.72S25 10 35 10s35 15 35 15l-5 10" style="fill:none;stroke:#000;stroke-width:6"/>
</g>
<g data-feature="eyebrow" data-feature-index="0" data-tag="left-eyebrow" data-meta-id="eyebrow6" data-meta-category="eyebrow" data-meta-short-label="gentle arched brows" data-meta-description="A medium-thickness eyebrow with a soft, natural arch and slightly tapered ends. Designed for a neutral or confident expression, suitable for everyday or subtle expressive avatars." data-meta-tags="medium,arched,tapered,natural,neutral,confident" transform="translate(105 260.3333333333333) rotate(13 35 9.66666666666667)">
<path fill="#272421" stroke="#000" d="M67 17c3-3 0-12 0-12H39C29 5 3 1 3 1S0 14 3 17s26 0 36 0 25 3 28 0Z"/>
</g>
<g data-feature="eyebrow" data-feature-index="1" data-tag="right-eyebrow" data-meta-id="eyebrow6" data-meta-category="eyebrow" data-meta-short-label="gentle arched brows" data-meta-description="A medium-thickness eyebrow with a soft, natural arch and slightly tapered ends. Designed for a neutral or confident expression, suitable for everyday or subtle expressive avatars." data-meta-tags="medium,arched,tapered,natural,neutral,confident" transform="translate(225 260.3333333333333) rotate(-13 35 9.66666666666667) scale(-1 1) translate(-70 0)">
<path fill="#272421" stroke="#000" d="M67 17c3-3 0-12 0-12H39C29 5 3 1 3 1S0 14 3 17s26 0 36 0 25 3 28 0Z"/>
</g>
<g data-feature="mouth" data-feature-index="0" data-tag="mouth" data-meta-id="mouth7" data-meta-category="mouth" data-meta-short-label="Gentle curved smile" data-meta-description="A medium-width, gently upward-curving mouth that reads as a relaxed, friendly smile. Thin linework with closed lips and slight corner lift, suitable for neutral-to-happy expressions without showing teeth." data-meta-tags="smile,closed,friendly,subtle,thin-line,neutral-happy" transform="translate(0 48.766108367626885) scale(-1 1) translate(-400 0)">
<path d="M168 384s9-13.77 32-14.03c17.4-.2 32 13.2 32 13.2s-4.29 28.26-32 28.83c-27.29.56-32-28-32-28" style="opacity:.05;mix-blend-mode:multiply;fill:#501414"/><path d="M168 384c12-4 48-4 64 0-8 8-10 16-32 16-20 0-24-8-32-16Z" style="fill:#000;stroke:#000"/><path d="M168 384c12-4 48-4 64 0-20 4-10 4-32 4-20 0-16 0-32-4m12 12s14-1 20-1 20 1 20 1-4 4-20 4c-12 0-20-4-20-4" style="fill:#fff"/><path d="M168 384c12-4 48-4 64 0-8 8-10 16-32 16-20 0-24-8-32-16Zm16 24c12 6 20 6 32 0m4.29-33.12c-14.52-5.66-27.29-6.34-40.29.09" style="fill:none;stroke:#000;stroke-width:4"/>
</g>
<g data-feature="nose" data-feature-index="0" data-tag="nose" data-meta-id="nose8" data-meta-category="nose" data-meta-short-label="slim upturned nose" data-meta-description="A slim, slightly upturned nose with a gentle bridge and small, understated nostrils. The shape is clean and stylized, suitable for neutral or cheerful expressions and versatile across character ages. Works well for refined or youthful avatars." data-meta-tags="slim,upturned,stylized,small-nostrils,neutral,youthful" transform="translate(-1 1.294999999999959) scale(0.77 0.77) translate(60.038961038961034 110.13266233766234)">
<path fill="#aa816f" stroke="#000" stroke-width="5" d="M186.89 385.17s-4.71-14.11 14.11-14.11 14.11 14.11 14.11 14.11M201 371.06v-18.82"/>
</g>
<g data-feature="hair" data-feature-index="0" data-tag="hair" data-meta-id="spike4" data-meta-category="hair" data-meta-short-label="Spiky short hair" data-meta-description="Stylized short hair composed of multiple pronounced upward-pointing spikes with sharp, angular edges; compact and graphic in silhouette. Conveys an energetic, slightly rebellious or punk vibe, likely asymmetric and bold in contrast." data-meta-tags="spiky,short,angular,punk,energetic,asymmetrical,bold" transform="scale(-1 1) translate(-399.4656607916533 0) scale(0.9460000000000001 1) translate(11.401239790036604 0)">
<path fill="#272421" stroke="#000" stroke-width="5" d="M60.24 310h-9.98s-.07-4.66-.15-9.25c-.13-7.33-.35-14.71-.63-22-.27-7.13-.61-14.16-.97-20.97-.36-6.66-.75-13.11-1.15-19.21-.4-5.99-.82-11.65-1.23-16.87-.82-10.14-1.64-18.6-2.28-24.6-.66-5.8-1.11-9.4-1.14-10.19-.28-6.19 4.6-16.43 4.6-16.43l10.34-1.07 6.77-19.05 14.5-3.03 6.87-18.83 15.24-2.24 7.59-17.19 14.65-.88 11.11-15.77L145 94.35l10.35-10.28 9.9 3.53 11.34-8.05 7.93 5.52 10.19-6.93 8.77 6.13 9.09-6.13 9.76 6.92 8.13-5.51 10.79 8.02 9.87-3.53 9.66 10.2 10.42-1.95 10.35 17.32 8.88-3.62 11.75 19.55 11.52-.07 9.1 20.54 13.83 2.61 6.05 18.75 9.89.68s4.51 10.05 4.18 16.3c-.04.8-.5 4.45-1.17 10.35-.64 6.13-1.45 14.79-2.26 25.2-.4 5.36-.79 11.19-1.17 17.36-.37 6.28-.73 12.92-1.05 19.77-.32 6.98-.61 14.18-.84 21.45-.23 7.4-.39 14.87-.48 22.25l-.1 9.27h-9.98s.25-12.6.34-16.86c.11-4.27-9.33-15.45-14.07-18.99-2.37-1.82-3.08-14.23-4.38-27.82-1.35-14.27-3.37-29.86-8.11-35.85-9.64-12.96-18.21-20.72-26.42-24.83-8.27-4.12-16.12-3.99-24.39-1.96-8.35 2.37-17.13 6.82-27.2 10.64-10.13 4.15-21.53 7.6-35 7.52-13.21.16-24.36-3.22-34.3-7.31-9.9-3.76-18.58-8.15-26.95-10.45-8.34-1.94-16.37-1.96-24.99 2.28-8.55 4.24-17.56 12.12-27.68 25.16-4.92 6.01-7.23 21.43-8.74 35.49-1.35 13.37-2.03 25.59-4.36 27.4-4.68 3.5-13.9 14.55-13.75 18.78.14 4.23.54 16.8.54 16.8Z"/>
</g>
</svg>