<svg xmlns="http://www.w3.org/2000/svg" viewBox="0 0 400 600" width="400" height="600">
  <!-- Button-up shirt with tie -->
  <g transform="scale(1 0.5)">
    <g transform="translate(0 720)">
      <path d="M120 200 L150 180 L250 180 L280 200 L300 270 L300 480 L100 480 L100 270 Z" fill="#fff" stroke="#000" stroke-width="12"/>
      <path d="M180 180 L200 205 L220 180 Z" fill="#e6e6e6" stroke="#000" stroke-width="8"/>
      <path d="M200 205 L185 250 L200 270 L215 250 Z" fill="$[accent]" stroke="#000" stroke-width="8"/>
      <path d="M195 270 L205 270 L205 320 L195 320 Z" fill="$[accent]" stroke="#000" stroke-width="8"/>
      <circle cx="200" cy="230" r="3" fill="#000"/>
      <circle cx="200" cy="245" r="3" fill="#000"/>
      <circle cx="200" cy="260" r="3" fill="#000"/>
      <path d="M120 240 L140 220 L140 260 Z" fill="$[secondary]" stroke="#000" stroke-width="8"/>
      <path d="M280 240 L260 220 L260 260 Z" fill="$[secondary]" stroke="#000" stroke-width="8"/>
    </g>
  </g>
</svg>
