<svg xmlns="http://www.w3.org/2000/svg" viewBox="0 0 400 600" width="400" height="600">
  <!-- Two-piece suit with lapels and shirt underneath -->
  <path d="M120 200 L150 180 L250 180 L280 200 L305 280 L305 480 L95 480 L95 280 Z" fill="$[primary]" stroke="#000" stroke-width="6"/>
  <path d="M160 190 L240 190 L240 230 L160 230 Z" fill="#fff" stroke="#000" stroke-width="4"/>
  <path d="M200 230 L185 270 L200 300 L215 270 Z" fill="$[accent]" stroke="#000" stroke-width="4"/>
  <path d="M115 260 L145 220 L185 300 L145 340 L115 300 Z" fill="$[secondary]" stroke="#000" stroke-width="4"/>
  <path d="M285 260 L255 220 L215 300 L255 340 L285 300 Z" fill="$[secondary]" stroke="#000" stroke-width="4"/>
  <circle cx="185" cy="330" r="3" fill="#000"/>
  <circle cx="215" cy="360" r="3" fill="#000"/>
</svg>
